<svg xmlns:cc="http://creativecommons.org/ns#" xmlns:dc="http://purl.org/dc/elements/1.1/" xmlns:rdf="http://www.w3.org/1999/02/22-rdf-syntax-ns#" xmlns:svg="http://www.w3.org/2000/svg" xmlns="http://www.w3.org/2000/svg" xmlns:xlink="http://www.w3.org/1999/xlink" x="0px" y="0px" width="500px" height="500px" viewBox="0 0 500 500" enable-background="new 0 0 500 500">
  <g transform="matrix(1.3333333,0,0,-1.3333333,0,500)">
    <path d="M220.8 216.6s-1.8 5.3-6 2.8c-1.2-.7-3.7-2.8-6.4-5.6-5.4 7.9-14 19.8-17.1 22.3-4.6 3.5-7.5-2.3-7.5-2.3l-18.9-17.9c-1.8 1.6-3.3 3-4.2 3.5-4.2 2.4-6-2.8-6-2.8l-19.5-24.1h11.3l1 .9c6 6 .7 3.9 1.1 4.9.4 1.1 2.2 3.9 4.2 3.5 2.2-.4 4.9.4 6.4 2.2 1.4 1.8.4 2.2 3.1 4.6 2.8 2.4 3.9-1.4 7.7-6.4 3.9-4.9 12.3-4.6 12.3-4.6s-4.8 5.3-9.9 10.7c6.4 5.2.4 3.7 1.1 4.9.5 1.2 3.1 4.2 5.6 3.5 2.4-.8 5.8-.4 7.7 1.5 1.9 1.9.8 2.4 4.5 4.9 3.7 2.4 4.3-2.3 8.1-8.7 1.2-2 3-3.5 5-4.6-5.6-5.8-11.1-12.1-11.1-12.1s8.4-.4 12.3 4.6c3.9 4.9 4.9 8.8 7.7 6.4 2.8-2.4 1.8-2.8 3.1-4.6 1.4-1.8 4.2-2.4 6.4-2.2 2.2.4 3.9-2.4 4.2-3.5.4-1.1-4.9 1.1 1.1-4.9l.9-.9h11.3l-19.5 24z" fill="#45CC9C"/>
    <path d="M67.1 171.8c.3-4.9 3.2-7.4 8.8-7.6 5.9.3 9 3 9.5 8.1-.4 4.8-3.4 7.4-8.9 7.8-5.8-.5-8.9-3.2-9.4-8.3zm5 2.2c.1 2.8 1.3 4.3 3.5 4.4 3-.4 4.6-3.1 4.8-8.2-.1-3-1.2-4.6-3.4-4.7-2.9.2-4.6 3-4.9 8.5zm26.6-2.2c.3-4.9 3.2-7.4 8.8-7.6 5.9.3 9 3 9.5 8.1-.4 4.8-3.4 7.4-8.9 7.8-5.8-.5-8.9-3.2-9.4-8.3zm5 2.2c.1 2.8 1.3 4.3 3.5 4.4 3-.4 4.6-3.1 4.8-8.2-.1-3-1.2-4.6-3.4-4.7-3 .2-4.6 3-4.9 8.5zm32.4-13.3v3.8c1.7-.2 3-.3 4-.3 5.2.2 8 3.1 8.5 8.8-.3 4.3-2.3 6.6-6.2 7-1.6.1-3.4-.7-5.6-2.5-.3-.3-.5-.5-.7-.6v3.5h-.9l-6-2.1v-.9l1.3-.4c.7-.3 1-.9 1-1.9v-15.4c.1-1.8-.6-2.6-2.1-2.5h-.4V156h10.8v1.2c-2.7 0-4 1.1-3.7 3.5zm0 6.4v8.2c1.5 1.3 2.7 1.9 3.8 1.9 2.4-.2 3.8-2.3 4-6.4-.2-3.4-1.5-5.2-3.8-5.4-1.3 0-2.6.6-4 1.7zm25.7 1.6l.4-4.4h1c.3.1.5.1.7.1.1 0 .3 0 .7-.1 1.1-.1 2.1-.1 3.2-.1 3.1.1 4.8 1.6 5 4.5 0 2-1.5 3.7-4.4 5.3-2.1 1.2-3.1 2.2-3.1 3.1.1.8.7 1.2 1.8 1.3 1.7 0 2.8-1.1 3.5-3.2h1.2v4.1c-1.4.5-2.8.7-4.3.7-3.7-.2-5.7-1.8-5.9-4.7 0-1.8 1.4-3.5 4.2-5.1 1.9-1.2 2.8-2.1 2.8-2.9-.2-1.1-.8-1.7-1.9-1.8-2 .2-3.3 1.3-4 3.2h-.9zm48.3 7.5l5.1-11.9h2.1l4.5 9.5 4.1-9.5h2.1l4.8 10.8c.7 2.3 1.8 3.3 3.4 3.2v1.2h-6.9v-1.2c1.9-.1 2.4-1 1.8-2.6l-2.6-6.4-2.8 6.9c-.6 1.6-.1 2.3 1.3 2.2v1.2h-8.5v-1.2c1.1.1 1.9-.7 2.3-2.3l-2.9-6.7-2.9 7.2c-.6 1.2-.2 1.8 1.2 1.9v1.2h-8.9v-1.2c1.3-.1 2.3-.8 2.8-2.3zm37.9-4.4c.3-4.9 3.2-7.4 8.8-7.6 5.9.3 9 3 9.5 8.1-.4 4.8-3.4 7.4-8.9 7.8-5.8-.5-8.9-3.2-9.4-8.3zm5 2.2c.1 2.8 1.3 4.3 3.5 4.4 3-.4 4.6-3.1 4.8-8.2-.1-3-1.2-4.6-3.4-4.7-3 .2-4.6 3-4.9 8.5zm28 2.2l5.1-11.9h2.1l4.5 9.5 4.1-9.5h2.1l4.8 10.8c.7 2.3 1.8 3.3 3.4 3.2v1.2h-6.9v-1.2c1.9-.1 2.4-1 1.8-2.6l-2.6-6.4-2.8 6.9c-.6 1.6-.2 2.3 1.3 2.2v1.2h-8.5v-1.2c1.1.1 1.9-.7 2.3-2.3l-2.9-6.7-2.9 7.2c-.6 1.2-.2 1.8 1.2 1.9v1.2h-8.9v-1.2c1.3-.1 2.3-.8 2.8-2.3z" fill="#9E9E9E"/>
  </g>
  <path d="M96.8 309.8l3.8-9.1c.1-.3.3-.6.5-.7.1-.1.3-.1.6-.1s.6.1.7.3c.1.1.2.4.2.7v10.6c0 .5-.3.8-.8.8-.3 0-.5-.1-.6-.3-.1-.1-.1-.2-.1-.4-.1-.4-.1-1.5-.1-3.3V305.1v-.9l-3.1 7.3c-.1.3-.3.5-.4.6-.1.1-.3.1-.6.1s-.5-.1-.6-.2c-.1-.1-.2-.3-.3-.5l-3.3-7.3v7.3c0 .2-.1.4-.2.5-.2.1-.4.2-.6.2-.2 0-.4-.1-.6-.2-.2-.1-.3-.4-.3-.7v-10.6c0-.4.1-.6.2-.8.1-.1.4-.2.7-.2.3 0 .5 0 .6.1.1.1.3.3.5.7l3.8 9.3z" fill="#9E9E9E"/>
  <path d="M113.7 311.7c-.9.8-2 1.2-3 1.2s-1.8-.3-2.4-.9c-.4-.5-.7-1.1-.7-1.9 0-1.1.4-1.9 1.3-2.4.5-.3 1.6-.5 3.3-.7.6-.1.9-.2 1-.4.1-.1.1-.2.1-.4v-.4c0-.8-.6-1.2-1.8-1.2-.7 0-1.2.1-1.5.4-.1.1-.3.3-.5.6-.2.4-.4.5-.8.5-.2 0-.4-.1-.6-.3-.1-.2-.2-.3-.2-.5 0-.4.2-.8.6-1.3.7-.7 1.6-1.1 2.9-1.1 1.3 0 2.2.3 2.8.9.4.5.6 1.1.6 1.6v5.1c0 .3.2.6.7.7.3.1.5.3.5.6 0 .2-.1.4-.3.6-.2.2-.4.2-.8.2-.6.3-1-.1-1.2-.9zm-.2-3.5c-.3.1-.7.2-1.2.3-1.2.2-2 .4-2.3.6-.4.3-.6.6-.6 1 0 .3.1.6.4.8.3.2.7.4 1.3.4.5 0 1-.1 1.5-.4.7-.4 1-.8 1-1.4v-1.3z" fill="#9E9E9E"/>
  <path d="M123.6 307.9l-1.2 1.1v2.7c0 .4-.1.6-.2.7-.1.1-.4.2-.6.2-.3 0-.5-.1-.6-.2-.1-.1-.2-.4-.2-.7V301c0-.4.1-.6.2-.7.1-.1.4-.2.6-.2.3 0 .5.1.6.2.1.1.2.4.2.7v5.7l1.2-1 2-2c.3-.3.5-.4.7-.4.3 0 .5.1.7.3.2.2.2.4.2.6 0 .2-.1.4-.4.7l-2 2 2.7 4.2c.2.3.3.5.3.6 0 .2-.1.4-.3.6-.2.2-.4.2-.6.2-.3 0-.5-.2-.7-.5l-2.6-4.1z" fill="#9E9E9E"/>
  <path d="M134.4 308.5c0 .7.1 1.2.3 1.5.4.9 1.1 1.3 2.2 1.3.6 0 1.1-.1 1.5-.4.2-.2.5-.5.7-.9.2-.3.4-.4.7-.4.3 0 .5.1.7.3.1.1.2.3.2.4 0 .6-.3 1.2-1 1.8-.7.6-1.5.8-2.6.8-1.7 0-2.9-.6-3.6-1.8-.4-.8-.6-1.7-.6-2.9 0-1.6.4-2.8 1.2-3.7.4-.4.8-.7 1.2-.8.4-.1.9-.2 1.5-.3.8 0 1.5.2 2.1.5.8.4 1.3 1.1 1.5 2 .2.5.3 1 .3 1.5 0 .8-.4 1.2-1.2 1.2h-5.1zm2.1-3.7c-.4.1-.7.2-.9.3-.6.4-1 1.2-1.1 2.2h4.5c0-.8-.2-1.4-.7-1.9-.3-.3-.6-.5-.8-.5-.4-.1-.7-.1-.8-.1h-.2z" fill="#9E9E9E"/>
  <path d="M159.7 305v5.6c0 .3.1.5.2.6.1.1.3.2.7.2h.2c.5 0 .7.3.7.8 0 .3-.1.5-.2.6s-.5.2-1 .2c-.7 0-1.2-.1-1.5-.2-.4-.2-.6-.7-.6-1.3V305h-.5c-.5 0-.7-.3-.7-.8s.2-.8.7-.8h.5v-.5c0-.8.1-1.3.2-1.5.1-.2.3-.3.6-.3.2 0 .4.1.6.2.2.2.3.6.3 1.4v.7h.7c.5 0 .8.3.8.8s-.3.8-.8.8h-.9z" fill="#9E9E9E"/>
  <path d="M167.7 304.4c.3-.3.5-.5.8-.7.5-.3 1.1-.5 1.8-.5 1.1 0 2 .3 2.5.9.4.4.6 1 .6 1.7v5.9c0 .4-.1.6-.2.7-.1.1-.3.2-.6.2s-.5-.1-.6-.2c-.1-.1-.2-.4-.2-.7v-5.4c0-1-.6-1.5-1.8-1.5-.7 0-1.2.2-1.7.7-.4.5-.6 1.1-.6 2v4.2c0 .4-.1.6-.2.7-.1.1-.3.2-.6.2s-.5-.1-.6-.2c-.1-.1-.2-.4-.2-.7v-11c0-.4.1-.6.2-.7.1-.1.3-.2.6-.2s.5.1.6.2.2.4.2.7v3.7z" fill="#9E9E9E"/>
  <path d="M179.8 299.8c.3 0 .6.1.8.3.2.2.3.5.3.8 0 .3-.1.6-.4.8-.2.2-.4.3-.7.3-.3 0-.6-.1-.8-.4-.2-.2-.3-.4-.3-.7 0-.3.1-.6.4-.8.2-.2.4-.3.7-.3zm-.8 11.8v-7.1c0-.3.1-.5.3-.7.2-.1.4-.2.6-.2.2 0 .5.1.6.3.1.1.2.3.2.6v7.1c0 .3-.1.6-.3.7-.2.1-.4.2-.6.2-.2 0-.5-.1-.6-.3-.2-.1-.2-.3-.2-.6z" fill="#9E9E9E"/>
  <path d="M188 305.1c.3-.6.7-1 1-1.2.5-.4 1.2-.6 1.9-.6.9 0 1.6.3 2 .8.4.4.6 1 .6 1.8v5.8c0 .3-.1.6-.2.7-.1.1-.4.2-.6.2-.3 0-.5-.1-.6-.2-.1-.1-.2-.4-.2-.7v-5c0-.8-.3-1.4-1-1.7-.2-.1-.4-.1-.6-.1-.1 0-.4.1-.7.2-.2.1-.5.3-.8.7-.2.2-.3.4-.4.6-.2.4-.3.9-.3 1.5v3.9c0 .3-.1.6-.2.7-.1.1-.4.2-.7.2-.3 0-.5-.1-.6-.2-.1-.1-.2-.4-.2-.7v-7.3c0-.6.3-.9.8-.9.3 0 .5.1.7.3.1.1.2.3.2.4v.8z" fill="#9E9E9E"/>
  <path d="M204.9 311.2c-.8 1-1.7 1.6-2.7 1.6-.9 0-1.6-.3-2.3-.9-.9-.9-1.4-2.1-1.4-3.7 0-1.1.2-2.1.7-3 .3-.6.8-1.1 1.4-1.4.5-.3 1.1-.5 1.8-.5 1.2 0 2.1.5 2.7 1.6v-.7c0-.5.2-.7.7-.7.5 0 .8.3.8 1v6.4c0 1.6-.1 2.8-.4 3.5-.2.5-.6 1-1 1.3-.7.5-1.5.7-2.6.7-.9 0-1.8-.2-2.6-.7-.5-.3-.9-.6-1.1-1.1-.1-.2-.2-.5-.2-.7 0-.2.1-.4.2-.5.1-.1.3-.2.5-.2s.3.1.4.2c0 0 .2.2.4.5.5.7 1.3 1 2.3 1 .9 0 1.6-.3 1.9-.9.3-.5.4-1.2.4-2.1v-.7zm-2.3-6.4c-.6 0-1.2.2-1.7.7-.5.5-.8 1.4-.8 2.5 0 .8.2 1.5.5 2.1.2.3.4.6.8.8.3.2.7.3 1.1.3.5 0 1-.2 1.4-.5.6-.5.9-1.4.9-2.7 0-1.2-.3-2.1-.9-2.7-.3-.3-.8-.5-1.3-.5z" fill="#9E9E9E"/>
  <path d="M217.5 306.2c-.3 0-.5-.1-.7-.4-.2-.3-.4-.5-.5-.6-.3-.3-.7-.4-1.3-.4-.7 0-1.2.2-1.5.5-.2.2-.3.5-.3.7 0 .2.1.4.2.6.2.2.7.4 1.4.6l1.4.4c.8.2 1.3.4 1.7.7.5.4.7 1 .7 1.7s-.2 1.3-.7 1.8c-.6.7-1.6 1-2.9 1-1.4 0-2.3-.3-2.9-1-.4-.5-.6-.9-.6-1.4 0-.2.1-.4.2-.5.1-.1.3-.2.5-.2s.3 0 .4.1c.1.1.3.3.5.7.4.6 1 .9 1.9.9.7 0 1.3-.2 1.6-.6.2-.2.3-.5.3-.8 0-.2-.1-.5-.2-.6-.2-.2-.5-.4-1-.5l-1.4-.4c-1-.3-1.7-.6-2.1-.9-.5-.4-.7-.9-.7-1.6 0-.8.3-1.5.8-1.9.6-.5 1.5-.8 2.5-.8 1.2 0 2.1.3 2.6.9.4.4.5.8.5 1.2 0 .2-.1.4-.2.6.1.1 0 .2-.2.2z" fill="#9E9E9E"/>
  <path d="M242.1 304.7l.8-.8c.5-.4 1.1-.6 1.8-.6.8 0 1.5.3 2 .8.4.4.6 1 .6 1.7v5.8c0 .4-.1.6-.2.7-.1.1-.4.2-.6.2-.3 0-.5-.1-.6-.2-.1-.1-.2-.4-.2-.7v-5.2c0-1.1-.5-1.6-1.5-1.6-.6 0-1 .2-1.4.6-.3.4-.5.9-.5 1.4v4.8c0 .4-.1.6-.2.7-.2.1-.4.2-.6.2-.3 0-.5-.1-.7-.2-.1-.1-.2-.3-.2-.7v-5.2c0-.5-.1-.9-.4-1.2-.3-.2-.6-.3-.9-.3-.5 0-.9.2-1.3.6-.5.5-.7.9-.7 1.3v4.8c0 .4-.1.6-.2.7-.2.1-.4.2-.6.2-.3 0-.5-.1-.7-.2-.1-.1-.2-.3-.2-.7v-7.3c0-.6.3-.9.8-.9.3 0 .5.1.7.3.1.1.2.3.2.4v.8c.3-.4.5-.7.8-.9.5-.4 1.1-.6 1.8-.6.8-.1 1.6.4 2.2 1.3z" fill="#9E9E9E"/>
  <path d="M256.6 303.3c1.3 0 2.3.4 3 1.3.6.8 1 2 1 3.4 0 1.3-.2 2.3-.7 3-.7 1.2-1.8 1.8-3.4 1.8-1.6 0-2.7-.6-3.3-1.8-.4-.8-.7-1.8-.7-3s.2-2.2.7-3c.7-1.1 1.8-1.7 3.4-1.7zm-.1 1.5c-.6 0-1.2.2-1.6.7-.2.3-.4.7-.6 1.2-.1.4-.2.8-.2 1.3 0 1.3.3 2.3.9 2.8.4.4.9.6 1.4.6.6 0 1.1-.2 1.6-.7.5-.5.7-1.4.7-2.6 0-.9-.2-1.6-.5-2.2-.2-.7-.8-1.1-1.7-1.1z" fill="#9E9E9E"/>
  <path d="M267.1 304.7c.7-.9 1.4-1.3 2.2-1.3.6 0 .8.3.8.9 0 .2 0 .3-.1.5-.1.1-.4.3-.8.3-.5.1-.8.2-1 .4-.2.2-.4.4-.6.8-.3.5-.4 1-.4 1.5v3.8c0 .3-.1.6-.2.7-.1.1-.3.2-.6.2s-.5-.1-.6-.2c-.1-.1-.2-.4-.2-.7v-7.3c0-.6.3-.9.8-.9.2 0 .4.1.6.2.1.1.2.3.2.5v.6z" fill="#9E9E9E"/>
  <path d="M276.1 308.5c0 .7.1 1.2.3 1.5.4.9 1.1 1.3 2.2 1.3.6 0 1.1-.1 1.5-.4.2-.2.5-.5.7-.9.2-.3.4-.4.7-.4.3 0 .5.1.7.3.1.1.2.3.2.4 0 .6-.3 1.2-1 1.8-.7.6-1.5.8-2.6.8-1.7 0-2.9-.6-3.6-1.8-.4-.8-.6-1.7-.6-2.9 0-1.6.4-2.8 1.2-3.7.4-.4.8-.7 1.2-.8.4-.1.9-.2 1.5-.3.8 0 1.5.2 2.1.5.8.4 1.3 1.1 1.6 2 .2.5.3 1 .3 1.5 0 .8-.4 1.2-1.2 1.2h-5.2zm2.1-3.7c-.4.1-.7.2-.9.3-.6.4-1 1.2-1.1 2.2h4.5c0-.8-.2-1.4-.7-1.9-.3-.3-.6-.5-.8-.5-.4-.1-.7-.1-.8-.1h-.2z" fill="#9E9E9E"/>
  <path d="M300 299.8c.3 0 .6.1.8.3.2.2.3.5.3.8 0 .3-.1.6-.4.8-.2.2-.4.3-.7.3-.3 0-.6-.1-.8-.4-.2-.2-.3-.4-.3-.7 0-.3.1-.6.4-.8.2-.2.4-.3.7-.3zm-.8 11.8v-7.1c0-.3.1-.5.3-.7.2-.1.4-.2.6-.2.2 0 .5.1.6.3.1.1.2.3.2.6v7.1c0 .3-.1.6-.3.7-.2.1-.4.2-.6.2-.2 0-.5-.1-.6-.3-.1-.1-.2-.3-.2-.6z" fill="#9E9E9E"/>
  <path d="M308.2 305.1c.3-.6.7-1 1-1.2.5-.4 1.2-.6 1.9-.6.9 0 1.6.3 2 .8.4.4.6 1 .6 1.8v5.8c0 .3-.1.6-.2.7-.1.1-.4.2-.6.2s-.5-.1-.6-.2c-.1-.1-.2-.4-.2-.7v-5c0-.8-.3-1.4-1-1.7-.2-.1-.4-.1-.6-.1-.1 0-.4.1-.7.2-.2.1-.5.3-.8.7-.2.2-.3.4-.4.6-.2.4-.3.9-.3 1.5v3.9c0 .3-.1.6-.2.7-.1.1-.4.2-.7.2-.3 0-.5-.1-.6-.2-.1-.1-.2-.4-.2-.7v-7.3c0-.6.3-.9.8-.9.3 0 .5.1.7.3.1.1.2.3.2.4v.8z" fill="#9E9E9E"/>
  <path d="M321.6 305v5.6c0 .3.1.5.2.6.1.1.3.2.7.2h.2c.5 0 .7.3.7.8 0 .3-.1.5-.2.6s-.5.2-1 .2c-.7 0-1.2-.1-1.5-.2-.4-.2-.6-.7-.6-1.3V305h-.5c-.5 0-.7-.3-.7-.8s.2-.8.7-.8h.5v-.5c0-.8.1-1.3.2-1.5.1-.2.3-.3.6-.3.2 0 .4.1.6.2.2.2.3.6.3 1.4v.7h.7c.5 0 .8.3.8.8s-.3.8-.8.8h-.9z" fill="#9E9E9E"/>
  <path d="M329.2 308.5c0 .7.1 1.2.3 1.5.4.9 1.1 1.3 2.2 1.3.6 0 1.1-.1 1.5-.4.2-.2.5-.5.7-.9.2-.3.4-.4.7-.4.3 0 .5.1.7.3.1.1.2.3.2.4 0 .6-.3 1.2-1 1.8-.7.6-1.5.8-2.6.8-1.7 0-2.9-.6-3.6-1.8-.4-.8-.6-1.7-.6-2.9 0-1.6.4-2.8 1.2-3.7.4-.4.8-.7 1.2-.8.4-.1.9-.2 1.5-.3.8 0 1.5.2 2.1.5.8.4 1.3 1.1 1.6 2 .2.5.3 1 .3 1.5 0 .8-.4 1.2-1.2 1.2h-5.2zm2-3.7c-.4.1-.7.2-.9.3-.6.4-1 1.2-1.1 2.2h4.5c0-.8-.2-1.4-.7-1.9-.3-.3-.6-.5-.8-.5-.4-.1-.7-.1-.8-.1h-.2z" fill="#9E9E9E"/>
  <path d="M342.1 304.7c.7-.9 1.4-1.3 2.2-1.3.6 0 .8.3.8.9 0 .2 0 .3-.1.5-.1.1-.4.3-.8.3-.5.1-.8.2-1 .4-.2.2-.4.4-.6.8-.3.5-.4 1-.4 1.5v3.8c0 .3-.1.6-.2.7-.1.1-.3.2-.6.2s-.5-.1-.6-.2c-.1-.1-.2-.4-.2-.7v-7.3c0-.6.3-.9.8-.9.2 0 .4.1.6.2.1.1.2.3.2.5v.6z" fill="#9E9E9E"/>
  <path d="M351.1 308.5c0 .7.1 1.2.3 1.5.4.9 1.1 1.3 2.2 1.3.6 0 1.1-.1 1.5-.4.2-.2.5-.5.7-.9.2-.3.4-.4.7-.4.3 0 .5.1.7.3.1.1.2.3.2.4 0 .6-.3 1.2-1 1.8-.7.6-1.5.8-2.6.8-1.7 0-2.9-.6-3.6-1.8-.4-.8-.6-1.7-.6-2.9 0-1.6.4-2.8 1.2-3.7.4-.4.8-.7 1.2-.8.4-.1.9-.2 1.5-.3.8 0 1.5.2 2.1.5.8.4 1.3 1.1 1.6 2 .2.5.3 1 .3 1.5 0 .8-.4 1.2-1.2 1.2h-5.2zm2-3.7c-.4.1-.7.2-.9.3-.6.4-1 1.2-1.1 2.2h4.5c0-.8-.2-1.4-.7-1.9-.3-.3-.6-.5-.8-.5-.4-.1-.7-.1-.8-.1h-.2z" fill="#9E9E9E"/>
  <path d="M367.9 306.2c-.3 0-.5-.1-.7-.4-.2-.3-.4-.5-.5-.6-.3-.3-.7-.4-1.3-.4-.7 0-1.2.2-1.5.5-.2.2-.3.5-.3.7 0 .2.1.4.2.6.2.2.7.4 1.4.6l1.4.4c.8.2 1.3.4 1.7.7.5.4.7 1 .7 1.7s-.2 1.3-.7 1.8c-.6.7-1.6 1-2.9 1-1.4 0-2.3-.3-2.9-1-.4-.5-.6-.9-.6-1.4 0-.2.1-.4.2-.5.1-.1.3-.2.5-.2s.3 0 .4.1c.1.1.3.3.5.7.4.6 1 .9 1.9.9.7 0 1.3-.2 1.6-.6.2-.2.3-.5.3-.8 0-.2-.1-.5-.2-.6-.2-.2-.5-.4-1-.5l-1.4-.4c-1-.3-1.7-.6-2.1-.9-.5-.4-.7-.9-.7-1.6 0-.8.3-1.5.8-1.9.6-.5 1.5-.8 2.5-.8 1.2 0 2.1.3 2.6.9.4.4.5.8.5 1.2 0 .2-.1.4-.2.6.2.1 0 .2-.2.2z" fill="#9E9E9E"/>
  <path d="M376.4 305v5.6c0 .3.1.5.2.6.1.1.3.2.7.2h.2c.5 0 .7.3.7.8 0 .3-.1.5-.2.6s-.5.2-1 .2c-.7 0-1.2-.1-1.5-.2-.4-.2-.6-.7-.6-1.3V305h-.5c-.5 0-.7-.3-.7-.8s.2-.8.7-.8h.5v-.5c0-.8.1-1.3.2-1.5.1-.2.3-.3.6-.3.2 0 .4.1.6.2.2.2.3.6.3 1.4v.7h.7c.5 0 .8.3.8.8s-.3.8-.8.8h-.9z" fill="#9E9E9E"/>
  <path d="M383.7 299.8c.3 0 .6.1.8.3.2.2.3.5.3.8 0 .3-.1.6-.4.8-.2.2-.4.3-.7.3-.3 0-.6-.1-.8-.4-.2-.2-.3-.4-.3-.7 0-.3.1-.6.4-.8.2-.2.4-.3.7-.3zm-.8 11.8v-7.1c0-.3.1-.5.3-.7.2-.1.4-.2.6-.2.2 0 .5.1.6.3.1.1.2.3.2.6v7.1c0 .3-.1.6-.3.7-.2.1-.4.2-.6.2-.2 0-.5-.1-.6-.3-.1-.1-.2-.3-.2-.6z" fill="#9E9E9E"/>
  <path d="M391.9 305.1c.3-.6.7-1 1-1.2.5-.4 1.2-.6 1.9-.6.9 0 1.6.3 2 .8.4.4.6 1 .6 1.8v5.8c0 .3-.1.6-.2.7-.1.1-.4.2-.6.2s-.5-.1-.6-.2c-.1-.1-.2-.4-.2-.7v-5c0-.8-.3-1.4-1-1.7-.2-.1-.4-.1-.6-.1-.1 0-.4.1-.7.2-.2.1-.5.3-.8.7-.2.2-.3.4-.4.6-.2.4-.3.9-.3 1.5v3.9c0 .3-.1.6-.2.7-.1.1-.4.2-.7.2-.3 0-.5-.1-.6-.2-.1-.1-.2-.4-.2-.7v-7.3c0-.6.3-.9.8-.9.3 0 .5.1.7.3.1.1.2.3.2.4v.8z" fill="#9E9E9E"/>
  <path d="M408.9 311.2c-.8 1-1.7 1.6-2.7 1.6-.9 0-1.6-.3-2.3-.9-.9-.9-1.4-2.1-1.4-3.7 0-1.1.2-2.1.7-3 .3-.6.8-1.1 1.4-1.4.5-.3 1.1-.5 1.8-.5 1.2 0 2.1.5 2.7 1.6v-.7c0-.5.2-.7.7-.7.5 0 .8.3.8 1v6.4c0 1.6-.1 2.8-.4 3.5-.2.5-.6 1-1 1.3-.7.5-1.5.7-2.6.7-.9 0-1.8-.2-2.6-.7-.5-.3-.9-.6-1.1-1.1-.1-.2-.2-.5-.2-.7 0-.2.1-.4.2-.5.1-.1.3-.2.5-.2s.3.1.4.2c0 0 .2.2.4.5.5.7 1.3 1 2.3 1 .9 0 1.6-.3 1.9-.9.3-.5.4-1.2.4-2.1v-.7zm-2.4-6.4c-.6 0-1.2.2-1.7.7-.5.5-.8 1.4-.8 2.5 0 .8.2 1.5.5 2.1.2.3.4.6.8.8.3.2.7.3 1.1.3.5 0 1-.2 1.4-.5.6-.5.9-1.4.9-2.7 0-1.2-.3-2.1-.9-2.7-.3-.3-.8-.5-1.3-.5z" fill="#9E9E9E"/>
</svg>